<mxfile host="app.diagrams.net" modified="2021-02-22T08:53:31.249Z" agent="5.0 (Windows NT 10.0; WOW64) AppleWebKit/537.36 (KHTML, like Gecko) Chrome/88.0.4324.182 Safari/537.36" etag="rfOoMXtT13QRK1fC6obC" version="14.4.2" type="github">
  <diagram name="Page-1" id="74e2e168-ea6b-b213-b513-2b3c1d86103e">
    <mxGraphModel dx="1634" dy="762" grid="1" gridSize="10" guides="1" tooltips="1" connect="1" arrows="1" fold="1" page="1" pageScale="1" pageWidth="1100" pageHeight="850" background="#F1FAEE" math="0" shadow="0">
      <root>
        <mxCell id="0" />
        <mxCell id="1" parent="0" />
        <mxCell id="77e6c97f196da883-1" value="DPOS退款" style="swimlane;html=1;childLayout=stackLayout;startSize=20;rounded=0;shadow=0;labelBackgroundColor=none;strokeWidth=1;fontFamily=Verdana;fontSize=8;align=center;fillColor=#A8DADC;strokeColor=#457B9D;fontColor=#1D3557;" parent="1" vertex="1">
          <mxGeometry x="70" y="50" width="1610" height="1620" as="geometry">
            <mxRectangle x="70" y="40" width="60" height="20" as="alternateBounds" />
          </mxGeometry>
        </mxCell>
        <mxCell id="77e6c97f196da883-2" value="r" style="swimlane;html=1;startSize=20;fillColor=#A8DADC;strokeColor=#457B9D;fontColor=#1D3557;" parent="77e6c97f196da883-1" vertex="1">
          <mxGeometry y="20" width="160" height="1600" as="geometry" />
        </mxCell>
        <mxCell id="77e6c97f196da883-8" value="发起退款" style="rounded=1;whiteSpace=wrap;html=1;shadow=0;labelBackgroundColor=none;strokeWidth=1;fontFamily=Verdana;fontSize=8;align=center;fillColor=#A8DADC;strokeColor=#457B9D;fontColor=#1D3557;" parent="77e6c97f196da883-2" vertex="1">
          <mxGeometry x="20" y="65" width="100" height="60" as="geometry" />
        </mxCell>
        <mxCell id="77e6c97f196da883-26" style="edgeStyle=orthogonalEdgeStyle;rounded=1;html=1;labelBackgroundColor=none;startArrow=none;startFill=0;startSize=5;endArrow=classicThin;endFill=1;endSize=5;jettySize=auto;orthogonalLoop=1;strokeWidth=1;fontFamily=Verdana;fontSize=8;strokeColor=#457B9D;fontColor=#1D3557;" parent="77e6c97f196da883-1" source="77e6c97f196da883-8" target="77e6c97f196da883-11" edge="1">
          <mxGeometry relative="1" as="geometry" />
        </mxCell>
        <mxCell id="77e6c97f196da883-3" value="退款系统" style="swimlane;html=1;startSize=20;fillColor=#A8DADC;strokeColor=#457B9D;fontColor=#1D3557;" parent="77e6c97f196da883-1" vertex="1">
          <mxGeometry x="160" y="20" width="160" height="1600" as="geometry" />
        </mxCell>
        <mxCell id="77e6c97f196da883-11" value="调用异步退款接口" style="rounded=1;whiteSpace=wrap;html=1;shadow=0;labelBackgroundColor=none;strokeWidth=1;fontFamily=Verdana;fontSize=8;align=center;fillColor=#A8DADC;strokeColor=#457B9D;fontColor=#1D3557;" parent="77e6c97f196da883-3" vertex="1">
          <mxGeometry x="30" y="65" width="100" height="60" as="geometry" />
        </mxCell>
        <mxCell id="77e6c97f196da883-10" value="消费退款完成消息" style="rounded=1;whiteSpace=wrap;html=1;shadow=0;labelBackgroundColor=none;strokeWidth=1;fontFamily=Verdana;fontSize=8;align=center;fillColor=#A8DADC;strokeColor=#457B9D;fontColor=#1D3557;" parent="77e6c97f196da883-3" vertex="1">
          <mxGeometry x="30" y="250" width="100" height="60" as="geometry" />
        </mxCell>
        <mxCell id="77e6c97f196da883-4" value="支付dubb网关" style="swimlane;html=1;startSize=20;fillColor=#A8DADC;strokeColor=#457B9D;fontColor=#1D3557;" parent="77e6c97f196da883-1" vertex="1">
          <mxGeometry x="320" y="20" width="160" height="1600" as="geometry" />
        </mxCell>
        <mxCell id="77e6c97f196da883-9" value="参数验证&amp;amp;补齐" style="rounded=1;whiteSpace=wrap;html=1;shadow=0;labelBackgroundColor=none;strokeWidth=1;fontFamily=Verdana;fontSize=8;align=center;fillColor=#A8DADC;strokeColor=#457B9D;fontColor=#1D3557;" parent="77e6c97f196da883-4" vertex="1">
          <mxGeometry x="30" y="65" width="100" height="60" as="geometry" />
        </mxCell>
        <mxCell id="825mWO_AQdO3POVHL9qi-46" value="yes" style="edgeStyle=orthogonalEdgeStyle;rounded=1;sketch=0;jumpStyle=arc;jumpSize=9;orthogonalLoop=1;jettySize=auto;html=1;entryX=0;entryY=0.5;entryDx=0;entryDy=0;startSize=6;endSize=6;targetPerimeterSpacing=0;strokeColor=#457B9D;fillColor=#A8DADC;fontColor=#1D3557;" parent="77e6c97f196da883-1" source="825mWO_AQdO3POVHL9qi-40" target="77e6c97f196da883-22" edge="1">
          <mxGeometry relative="1" as="geometry">
            <mxPoint x="840" y="675" as="targetPoint" />
          </mxGeometry>
        </mxCell>
        <mxCell id="77e6c97f196da883-5" value="退款中心API" style="swimlane;html=1;startSize=20;fillColor=#A8DADC;strokeColor=#457B9D;fontColor=#1D3557;" parent="77e6c97f196da883-1" vertex="1">
          <mxGeometry x="480" y="20" width="490" height="1600" as="geometry" />
        </mxCell>
        <mxCell id="EplShAqp4iF6V8usYBHb-63" style="edgeStyle=orthogonalEdgeStyle;curved=1;rounded=0;orthogonalLoop=1;jettySize=auto;html=1;entryX=0.5;entryY=1;entryDx=0;entryDy=0;dashed=1;strokeColor=#FF3333;" edge="1" parent="77e6c97f196da883-5" source="77e6c97f196da883-15" target="EplShAqp4iF6V8usYBHb-61">
          <mxGeometry relative="1" as="geometry" />
        </mxCell>
        <mxCell id="77e6c97f196da883-15" value="发送退款完成&amp;amp;财务对账MQ消息" style="rounded=1;whiteSpace=wrap;html=1;shadow=0;labelBackgroundColor=none;strokeWidth=1;fontFamily=Verdana;fontSize=8;align=center;fillColor=#A8DADC;strokeColor=#457B9D;fontColor=#1D3557;" parent="77e6c97f196da883-5" vertex="1">
          <mxGeometry x="220" y="170" width="100" height="60" as="geometry" />
        </mxCell>
        <mxCell id="825mWO_AQdO3POVHL9qi-43" value="no" style="edgeStyle=orthogonalEdgeStyle;rounded=1;sketch=0;jumpStyle=arc;jumpSize=9;orthogonalLoop=1;jettySize=auto;html=1;exitX=0.5;exitY=1;exitDx=0;exitDy=0;entryX=0.5;entryY=0;entryDx=0;entryDy=0;startSize=6;endSize=6;targetPerimeterSpacing=0;strokeColor=#457B9D;fillColor=#A8DADC;fontColor=#1D3557;" parent="77e6c97f196da883-5" source="77e6c97f196da883-20" target="825mWO_AQdO3POVHL9qi-40" edge="1">
          <mxGeometry relative="1" as="geometry" />
        </mxCell>
        <mxCell id="77e6c97f196da883-20" value="是【支付促销】渠道" style="rhombus;whiteSpace=wrap;html=1;rounded=0;shadow=0;labelBackgroundColor=none;strokeWidth=1;fontFamily=Verdana;fontSize=8;align=center;fillColor=#A8DADC;strokeColor=#457B9D;fontColor=#1D3557;" parent="77e6c97f196da883-5" vertex="1">
          <mxGeometry x="25" y="355" width="110" height="70" as="geometry" />
        </mxCell>
        <mxCell id="825mWO_AQdO3POVHL9qi-8" style="edgeStyle=orthogonalEdgeStyle;curved=0;rounded=1;sketch=0;orthogonalLoop=1;jettySize=auto;html=1;exitX=0.5;exitY=1;exitDx=0;exitDy=0;entryX=0.5;entryY=0;entryDx=0;entryDy=0;strokeColor=#457B9D;fillColor=#A8DADC;fontColor=#1D3557;" parent="77e6c97f196da883-5" source="77e6c97f196da883-12" target="77e6c97f196da883-13" edge="1">
          <mxGeometry relative="1" as="geometry" />
        </mxCell>
        <mxCell id="77e6c97f196da883-12" value="保存退款记录" style="rounded=1;whiteSpace=wrap;html=1;shadow=0;labelBackgroundColor=none;strokeWidth=1;fontFamily=Verdana;fontSize=8;align=center;fillColor=#A8DADC;strokeColor=#457B9D;fontColor=#1D3557;" parent="77e6c97f196da883-5" vertex="1">
          <mxGeometry x="30" y="65" width="100" height="60" as="geometry" />
        </mxCell>
        <mxCell id="EplShAqp4iF6V8usYBHb-43" style="rounded=0;orthogonalLoop=1;jettySize=auto;html=1;entryX=0.5;entryY=0;entryDx=0;entryDy=0;strokeColor=#457B9D;" edge="1" parent="77e6c97f196da883-5" source="77e6c97f196da883-13" target="77e6c97f196da883-20">
          <mxGeometry relative="1" as="geometry" />
        </mxCell>
        <mxCell id="77e6c97f196da883-13" value="已退款" style="rhombus;whiteSpace=wrap;html=1;rounded=0;shadow=0;labelBackgroundColor=none;strokeWidth=1;fontFamily=Verdana;fontSize=8;align=center;fillColor=#A8DADC;strokeColor=#457B9D;fontColor=#1D3557;" parent="77e6c97f196da883-5" vertex="1">
          <mxGeometry x="40" y="170" width="80" height="60" as="geometry" />
        </mxCell>
        <mxCell id="77e6c97f196da883-33" value="yes" style="edgeStyle=orthogonalEdgeStyle;rounded=1;html=1;labelBackgroundColor=none;startArrow=none;startFill=0;startSize=5;endArrow=classicThin;endFill=1;endSize=5;jettySize=auto;orthogonalLoop=1;strokeWidth=1;fontFamily=Verdana;fontSize=8;strokeColor=#457B9D;fontColor=#1D3557;" parent="77e6c97f196da883-5" source="77e6c97f196da883-13" target="77e6c97f196da883-15" edge="1">
          <mxGeometry relative="1" as="geometry" />
        </mxCell>
        <mxCell id="EplShAqp4iF6V8usYBHb-12" style="edgeStyle=orthogonalEdgeStyle;curved=1;rounded=0;orthogonalLoop=1;jettySize=auto;html=1;strokeColor=#457B9D;" edge="1" parent="77e6c97f196da883-5" source="825mWO_AQdO3POVHL9qi-40" target="825mWO_AQdO3POVHL9qi-47">
          <mxGeometry relative="1" as="geometry" />
        </mxCell>
        <mxCell id="EplShAqp4iF6V8usYBHb-13" value="no" style="edgeLabel;html=1;align=center;verticalAlign=middle;resizable=0;points=[];" vertex="1" connectable="0" parent="EplShAqp4iF6V8usYBHb-12">
          <mxGeometry x="-0.1294" y="-1" relative="1" as="geometry">
            <mxPoint as="offset" />
          </mxGeometry>
        </mxCell>
        <mxCell id="825mWO_AQdO3POVHL9qi-40" value="是【支付优惠券】渠道" style="rhombus;whiteSpace=wrap;html=1;rounded=0;shadow=0;labelBackgroundColor=none;strokeWidth=1;fontFamily=Verdana;fontSize=8;align=center;fillColor=#A8DADC;strokeColor=#457B9D;fontColor=#1D3557;" parent="77e6c97f196da883-5" vertex="1">
          <mxGeometry x="25" y="620" width="110" height="70" as="geometry" />
        </mxCell>
        <mxCell id="EplShAqp4iF6V8usYBHb-2" value="no" style="edgeStyle=orthogonalEdgeStyle;rounded=0;orthogonalLoop=1;jettySize=auto;html=1;entryX=0.5;entryY=0;entryDx=0;entryDy=0;strokeColor=#457B9D;" edge="1" parent="77e6c97f196da883-5" source="825mWO_AQdO3POVHL9qi-47" target="77e6c97f196da883-23">
          <mxGeometry relative="1" as="geometry" />
        </mxCell>
        <mxCell id="825mWO_AQdO3POVHL9qi-47" value="退款金额是否超支付金额" style="rhombus;whiteSpace=wrap;html=1;rounded=0;shadow=0;labelBackgroundColor=none;strokeWidth=1;fontFamily=Verdana;fontSize=8;align=center;fillColor=#A8DADC;strokeColor=#457B9D;fontColor=#1D3557;" parent="77e6c97f196da883-5" vertex="1">
          <mxGeometry x="25" y="820" width="110" height="70" as="geometry" />
        </mxCell>
        <mxCell id="EplShAqp4iF6V8usYBHb-32" style="edgeStyle=orthogonalEdgeStyle;curved=1;rounded=0;orthogonalLoop=1;jettySize=auto;html=1;exitX=0.5;exitY=1;exitDx=0;exitDy=0;entryX=0.5;entryY=0;entryDx=0;entryDy=0;strokeColor=#457B9D;" edge="1" parent="77e6c97f196da883-5" source="77e6c97f196da883-23" target="EplShAqp4iF6V8usYBHb-29">
          <mxGeometry relative="1" as="geometry" />
        </mxCell>
        <mxCell id="77e6c97f196da883-23" value="更新为状态为退款待确认" style="rounded=1;whiteSpace=wrap;html=1;shadow=0;labelBackgroundColor=none;strokeWidth=1;fontFamily=Verdana;fontSize=8;align=center;fillColor=#A8DADC;strokeColor=#457B9D;fontColor=#1D3557;" parent="77e6c97f196da883-5" vertex="1">
          <mxGeometry x="30" y="1010" width="100" height="60" as="geometry" />
        </mxCell>
        <mxCell id="EplShAqp4iF6V8usYBHb-8" style="edgeStyle=orthogonalEdgeStyle;rounded=0;orthogonalLoop=1;jettySize=auto;html=1;entryX=0.5;entryY=1;entryDx=0;entryDy=0;elbow=vertical;exitX=0.5;exitY=0;exitDx=0;exitDy=0;strokeColor=#457B9D;curved=1;" edge="1" parent="77e6c97f196da883-5" source="EplShAqp4iF6V8usYBHb-5" target="77e6c97f196da883-15">
          <mxGeometry relative="1" as="geometry" />
        </mxCell>
        <mxCell id="EplShAqp4iF6V8usYBHb-9" value="yes" style="edgeLabel;html=1;align=center;verticalAlign=middle;resizable=0;points=[];" vertex="1" connectable="0" parent="EplShAqp4iF6V8usYBHb-8">
          <mxGeometry x="-0.6755" y="4" relative="1" as="geometry">
            <mxPoint as="offset" />
          </mxGeometry>
        </mxCell>
        <mxCell id="EplShAqp4iF6V8usYBHb-50" style="edgeStyle=orthogonalEdgeStyle;curved=1;rounded=0;orthogonalLoop=1;jettySize=auto;html=1;strokeColor=#457B9D;exitX=0.5;exitY=1;exitDx=0;exitDy=0;" edge="1" parent="77e6c97f196da883-5" source="EplShAqp4iF6V8usYBHb-5">
          <mxGeometry relative="1" as="geometry">
            <mxPoint x="335" y="560" as="sourcePoint" />
            <mxPoint x="335" y="990" as="targetPoint" />
            <Array as="points">
              <mxPoint x="410" y="560" />
              <mxPoint x="410" y="990" />
            </Array>
          </mxGeometry>
        </mxCell>
        <mxCell id="EplShAqp4iF6V8usYBHb-53" value="no" style="edgeLabel;html=1;align=center;verticalAlign=middle;resizable=0;points=[];" vertex="1" connectable="0" parent="EplShAqp4iF6V8usYBHb-50">
          <mxGeometry x="-0.8039" y="-1" relative="1" as="geometry">
            <mxPoint as="offset" />
          </mxGeometry>
        </mxCell>
        <mxCell id="EplShAqp4iF6V8usYBHb-5" value="退/回滚成功&amp;amp;更新退款状态成功" style="rhombus;whiteSpace=wrap;html=1;rounded=0;shadow=0;labelBackgroundColor=none;strokeWidth=1;fontFamily=Verdana;fontSize=8;align=center;fillColor=#A8DADC;strokeColor=#457B9D;fontColor=#1D3557;" vertex="1" parent="77e6c97f196da883-5">
          <mxGeometry x="350" y="490" width="110" height="70" as="geometry" />
        </mxCell>
        <mxCell id="EplShAqp4iF6V8usYBHb-54" style="edgeStyle=orthogonalEdgeStyle;curved=1;rounded=0;orthogonalLoop=1;jettySize=auto;html=1;entryX=0.5;entryY=1;entryDx=0;entryDy=0;strokeColor=#457B9D;" edge="1" parent="77e6c97f196da883-5" source="EplShAqp4iF6V8usYBHb-10" target="77e6c97f196da883-15">
          <mxGeometry relative="1" as="geometry" />
        </mxCell>
        <mxCell id="EplShAqp4iF6V8usYBHb-55" value="yes" style="edgeLabel;html=1;align=center;verticalAlign=middle;resizable=0;points=[];" vertex="1" connectable="0" parent="EplShAqp4iF6V8usYBHb-54">
          <mxGeometry x="-0.2035" y="16" relative="1" as="geometry">
            <mxPoint as="offset" />
          </mxGeometry>
        </mxCell>
        <mxCell id="EplShAqp4iF6V8usYBHb-10" value="退/回滚成功&amp;amp;更新退款状态成功" style="rhombus;whiteSpace=wrap;html=1;rounded=0;shadow=0;labelBackgroundColor=none;strokeWidth=1;fontFamily=Verdana;fontSize=8;align=center;fillColor=#A8DADC;strokeColor=#457B9D;fontColor=#1D3557;" vertex="1" parent="77e6c97f196da883-5">
          <mxGeometry x="280" y="740" width="110" height="70" as="geometry" />
        </mxCell>
        <mxCell id="EplShAqp4iF6V8usYBHb-33" style="edgeStyle=orthogonalEdgeStyle;curved=1;rounded=0;orthogonalLoop=1;jettySize=auto;html=1;strokeColor=#457B9D;" edge="1" parent="77e6c97f196da883-5" source="EplShAqp4iF6V8usYBHb-29" target="EplShAqp4iF6V8usYBHb-56">
          <mxGeometry relative="1" as="geometry">
            <mxPoint x="80" y="1250" as="targetPoint" />
          </mxGeometry>
        </mxCell>
        <mxCell id="EplShAqp4iF6V8usYBHb-29" value="是否离线支付方式" style="rhombus;whiteSpace=wrap;html=1;rounded=0;shadow=0;labelBackgroundColor=none;strokeWidth=1;fontFamily=Verdana;fontSize=8;align=center;fillColor=#A8DADC;strokeColor=#457B9D;fontColor=#1D3557;" vertex="1" parent="77e6c97f196da883-5">
          <mxGeometry x="25" y="1135" width="110" height="70" as="geometry" />
        </mxCell>
        <mxCell id="EplShAqp4iF6V8usYBHb-34" value="退款成功&amp;amp;更新退款状态成功" style="rhombus;whiteSpace=wrap;html=1;rounded=0;shadow=0;labelBackgroundColor=none;strokeWidth=1;fontFamily=Verdana;fontSize=8;align=center;fillColor=#A8DADC;strokeColor=#457B9D;fontColor=#1D3557;" vertex="1" parent="77e6c97f196da883-5">
          <mxGeometry x="280" y="1240" width="110" height="70" as="geometry" />
        </mxCell>
        <mxCell id="EplShAqp4iF6V8usYBHb-20" value="返回失败" style="rounded=1;whiteSpace=wrap;html=1;shadow=0;labelBackgroundColor=none;strokeWidth=1;fontFamily=Verdana;fontSize=8;align=center;strokeColor=#457B9D;fontColor=#1D3557;fillColor=#00FF00;" vertex="1" parent="77e6c97f196da883-5">
          <mxGeometry x="285" y="990" width="100" height="59" as="geometry" />
        </mxCell>
        <mxCell id="EplShAqp4iF6V8usYBHb-40" value="no" style="edgeStyle=orthogonalEdgeStyle;rounded=0;orthogonalLoop=1;jettySize=auto;html=1;strokeColor=#457B9D;" edge="1" parent="77e6c97f196da883-5" source="EplShAqp4iF6V8usYBHb-34" target="EplShAqp4iF6V8usYBHb-20">
          <mxGeometry relative="1" as="geometry">
            <mxPoint x="215" y="940" as="targetPoint" />
            <mxPoint x="215" y="1240" as="sourcePoint" />
          </mxGeometry>
        </mxCell>
        <mxCell id="EplShAqp4iF6V8usYBHb-41" value="no" style="edgeStyle=orthogonalEdgeStyle;curved=1;rounded=0;orthogonalLoop=1;jettySize=auto;html=1;strokeColor=#457B9D;" edge="1" parent="77e6c97f196da883-5" source="EplShAqp4iF6V8usYBHb-10" target="EplShAqp4iF6V8usYBHb-20">
          <mxGeometry relative="1" as="geometry" />
        </mxCell>
        <mxCell id="EplShAqp4iF6V8usYBHb-42" value="yes" style="edgeStyle=orthogonalEdgeStyle;curved=1;rounded=0;orthogonalLoop=1;jettySize=auto;html=1;entryX=0.5;entryY=0;entryDx=0;entryDy=0;strokeColor=#457B9D;" edge="1" parent="77e6c97f196da883-5" source="825mWO_AQdO3POVHL9qi-47" target="EplShAqp4iF6V8usYBHb-20">
          <mxGeometry x="-0.1525" y="-65" relative="1" as="geometry">
            <mxPoint as="offset" />
          </mxGeometry>
        </mxCell>
        <mxCell id="EplShAqp4iF6V8usYBHb-51" value="yes" style="edgeLabel;html=1;align=center;verticalAlign=middle;resizable=0;points=[];" vertex="1" connectable="0" parent="EplShAqp4iF6V8usYBHb-42">
          <mxGeometry x="-0.3831" y="-10" relative="1" as="geometry">
            <mxPoint as="offset" />
          </mxGeometry>
        </mxCell>
        <mxCell id="EplShAqp4iF6V8usYBHb-57" style="edgeStyle=orthogonalEdgeStyle;curved=1;rounded=0;orthogonalLoop=1;jettySize=auto;html=1;entryX=0.5;entryY=1;entryDx=0;entryDy=0;strokeColor=#457B9D;" edge="1" parent="77e6c97f196da883-5" source="EplShAqp4iF6V8usYBHb-56" target="77e6c97f196da883-15">
          <mxGeometry relative="1" as="geometry" />
        </mxCell>
        <mxCell id="EplShAqp4iF6V8usYBHb-58" value="yes" style="edgeLabel;html=1;align=center;verticalAlign=middle;resizable=0;points=[];" vertex="1" connectable="0" parent="EplShAqp4iF6V8usYBHb-57">
          <mxGeometry x="-0.5294" y="55" relative="1" as="geometry">
            <mxPoint as="offset" />
          </mxGeometry>
        </mxCell>
        <mxCell id="EplShAqp4iF6V8usYBHb-56" value="直接返回成功并更新退款状态" style="rhombus;whiteSpace=wrap;html=1;rounded=0;shadow=0;labelBackgroundColor=none;strokeWidth=1;fontFamily=Verdana;fontSize=8;align=center;fillColor=#A8DADC;strokeColor=#457B9D;fontColor=#1D3557;" vertex="1" parent="77e6c97f196da883-5">
          <mxGeometry x="25" y="1250" width="110" height="70" as="geometry" />
        </mxCell>
        <mxCell id="EplShAqp4iF6V8usYBHb-61" value="返回成功" style="rounded=1;whiteSpace=wrap;html=1;shadow=0;labelBackgroundColor=none;strokeWidth=1;fontFamily=Verdana;fontSize=8;align=center;strokeColor=#457B9D;fontColor=#1D3557;fillColor=#00FF00;" vertex="1" parent="77e6c97f196da883-5">
          <mxGeometry x="220" y="65" width="100" height="60" as="geometry" />
        </mxCell>
        <mxCell id="77e6c97f196da883-6" value="支付促销系统" style="swimlane;html=1;startSize=20;fillColor=#A8DADC;strokeColor=#457B9D;fontColor=#1D3557;" parent="77e6c97f196da883-1" vertex="1">
          <mxGeometry x="970" y="20" width="160" height="1600" as="geometry" />
        </mxCell>
        <mxCell id="77e6c97f196da883-19" value="退/回滚支付促销" style="rounded=1;whiteSpace=wrap;html=1;shadow=0;labelBackgroundColor=none;strokeWidth=1;fontFamily=Verdana;fontSize=8;align=center;fillColor=#A8DADC;strokeColor=#457B9D;fontColor=#1D3557;" parent="77e6c97f196da883-6" vertex="1">
          <mxGeometry x="40" y="360" width="100" height="60" as="geometry" />
        </mxCell>
        <mxCell id="77e6c97f196da883-22" value="冲正支付优惠券" style="rounded=1;whiteSpace=wrap;html=1;shadow=0;labelBackgroundColor=none;strokeWidth=1;fontFamily=Verdana;fontSize=8;align=center;fillColor=#A8DADC;strokeColor=#457B9D;fontColor=#1D3557;" parent="77e6c97f196da883-6" vertex="1">
          <mxGeometry x="40" y="630" width="100" height="51" as="geometry" />
        </mxCell>
        <mxCell id="EplShAqp4iF6V8usYBHb-28" value="渠道退款" style="rounded=1;whiteSpace=wrap;html=1;shadow=0;labelBackgroundColor=none;strokeWidth=1;fontFamily=Verdana;fontSize=8;align=center;fillColor=#A8DADC;strokeColor=#457B9D;fontColor=#1D3557;" vertex="1" parent="77e6c97f196da883-6">
          <mxGeometry x="40" y="1144.5" width="100" height="51" as="geometry" />
        </mxCell>
        <mxCell id="77e6c97f196da883-7" value="渠道中心" style="swimlane;html=1;startSize=20;fillColor=#A8DADC;strokeColor=#457B9D;fontColor=#1D3557;" parent="77e6c97f196da883-1" vertex="1">
          <mxGeometry x="1130" y="20" width="160" height="1600" as="geometry" />
        </mxCell>
        <mxCell id="825mWO_AQdO3POVHL9qi-4" value="&lt;font color=&quot;#ff0000&quot;&gt;消费退款完成MQ&lt;/font&gt;" style="swimlane;html=1;startSize=20;fillColor=#A8DADC;strokeColor=#457B9D;fontColor=#1D3557;" parent="77e6c97f196da883-1" vertex="1">
          <mxGeometry x="1290" y="20" width="160" height="1600" as="geometry" />
        </mxCell>
        <mxCell id="825mWO_AQdO3POVHL9qi-5" value="虚拟售后系统" style="rounded=1;whiteSpace=wrap;html=1;shadow=0;labelBackgroundColor=none;strokeWidth=1;fontFamily=Verdana;fontSize=8;align=center;fillColor=#A8DADC;strokeColor=#457B9D;fontColor=#1D3557;" parent="825mWO_AQdO3POVHL9qi-4" vertex="1">
          <mxGeometry x="30" y="50" width="100" height="60" as="geometry" />
        </mxCell>
        <mxCell id="825mWO_AQdO3POVHL9qi-27" value="支付帐户中心" style="rounded=1;whiteSpace=wrap;html=1;shadow=0;labelBackgroundColor=none;strokeWidth=1;fontFamily=Verdana;fontSize=8;align=center;fillColor=#A8DADC;strokeColor=#457B9D;fontColor=#1D3557;" parent="825mWO_AQdO3POVHL9qi-4" vertex="1">
          <mxGeometry x="30" y="140" width="100" height="60" as="geometry" />
        </mxCell>
        <mxCell id="825mWO_AQdO3POVHL9qi-28" value="冲正中心" style="rounded=1;whiteSpace=wrap;html=1;shadow=0;labelBackgroundColor=none;strokeWidth=1;fontFamily=Verdana;fontSize=8;align=center;fillColor=#A8DADC;strokeColor=#457B9D;fontColor=#1D3557;" parent="825mWO_AQdO3POVHL9qi-4" vertex="1">
          <mxGeometry x="30" y="230" width="100" height="60" as="geometry" />
        </mxCell>
        <mxCell id="825mWO_AQdO3POVHL9qi-29" value="代收款系统" style="rounded=1;whiteSpace=wrap;html=1;shadow=0;labelBackgroundColor=none;strokeWidth=1;fontFamily=Verdana;fontSize=8;align=center;fillColor=#A8DADC;strokeColor=#457B9D;fontColor=#1D3557;" parent="825mWO_AQdO3POVHL9qi-4" vertex="1">
          <mxGeometry x="30" y="340" width="100" height="60" as="geometry" />
        </mxCell>
        <mxCell id="825mWO_AQdO3POVHL9qi-30" value="支付新业务系统" style="rounded=1;whiteSpace=wrap;html=1;shadow=0;labelBackgroundColor=none;strokeWidth=1;fontFamily=Verdana;fontSize=8;align=center;fillColor=#A8DADC;strokeColor=#457B9D;fontColor=#1D3557;" parent="825mWO_AQdO3POVHL9qi-4" vertex="1">
          <mxGeometry x="30" y="450" width="100" height="60" as="geometry" />
        </mxCell>
        <mxCell id="825mWO_AQdO3POVHL9qi-14" value="财务对账中心" style="swimlane;html=1;startSize=20;fillColor=#A8DADC;strokeColor=#457B9D;fontColor=#1D3557;" parent="77e6c97f196da883-1" vertex="1">
          <mxGeometry x="1450" y="20" width="160" height="1600" as="geometry" />
        </mxCell>
        <mxCell id="825mWO_AQdO3POVHL9qi-15" value="" style="rounded=1;whiteSpace=wrap;html=1;shadow=0;labelBackgroundColor=none;strokeWidth=1;fontFamily=Verdana;fontSize=8;align=center;fillColor=#A8DADC;strokeColor=#457B9D;fontColor=#1D3557;" parent="825mWO_AQdO3POVHL9qi-14" vertex="1">
          <mxGeometry x="30" y="640" width="100" height="60" as="geometry" />
        </mxCell>
        <mxCell id="825mWO_AQdO3POVHL9qi-25" value="消费财务凭证消息" style="rounded=1;whiteSpace=wrap;html=1;shadow=0;labelBackgroundColor=none;strokeWidth=1;fontFamily=Verdana;fontSize=8;align=center;fillColor=#A8DADC;strokeColor=#457B9D;fontColor=#1D3557;" parent="825mWO_AQdO3POVHL9qi-14" vertex="1">
          <mxGeometry x="40" y="290" width="100" height="60" as="geometry" />
        </mxCell>
        <mxCell id="825mWO_AQdO3POVHL9qi-1" style="edgeStyle=orthogonalEdgeStyle;curved=0;rounded=1;sketch=0;orthogonalLoop=1;jettySize=auto;html=1;entryX=0;entryY=0.5;entryDx=0;entryDy=0;strokeColor=#457B9D;fillColor=#A8DADC;fontColor=#1D3557;" parent="77e6c97f196da883-1" source="77e6c97f196da883-11" target="77e6c97f196da883-9" edge="1">
          <mxGeometry relative="1" as="geometry" />
        </mxCell>
        <mxCell id="77e6c97f196da883-28" style="edgeStyle=orthogonalEdgeStyle;rounded=1;html=1;labelBackgroundColor=none;startArrow=none;startFill=0;startSize=5;endArrow=classicThin;endFill=1;endSize=5;jettySize=auto;orthogonalLoop=1;strokeWidth=1;fontFamily=Verdana;fontSize=8;strokeColor=#457B9D;fontColor=#1D3557;" parent="77e6c97f196da883-1" source="77e6c97f196da883-9" target="77e6c97f196da883-12" edge="1">
          <mxGeometry relative="1" as="geometry" />
        </mxCell>
        <mxCell id="825mWO_AQdO3POVHL9qi-26" style="edgeStyle=orthogonalEdgeStyle;rounded=1;sketch=0;jumpStyle=arc;jumpSize=9;orthogonalLoop=1;jettySize=auto;html=1;entryX=1;entryY=0.5;entryDx=0;entryDy=0;dashed=1;startSize=6;endSize=6;targetPerimeterSpacing=0;fillColor=#A8DADC;fontColor=#1D3557;curved=1;strokeColor=#FF3333;" parent="77e6c97f196da883-1" source="825mWO_AQdO3POVHL9qi-25" target="77e6c97f196da883-15" edge="1">
          <mxGeometry relative="1" as="geometry" />
        </mxCell>
        <mxCell id="825mWO_AQdO3POVHL9qi-31" style="edgeStyle=orthogonalEdgeStyle;rounded=1;sketch=0;jumpStyle=arc;jumpSize=9;orthogonalLoop=1;jettySize=auto;html=1;exitX=0;exitY=0.5;exitDx=0;exitDy=0;entryX=1;entryY=0.5;entryDx=0;entryDy=0;dashed=1;startSize=6;endSize=6;targetPerimeterSpacing=0;fillColor=#A8DADC;fontColor=#1D3557;elbow=vertical;curved=1;strokeColor=#FF3333;" parent="77e6c97f196da883-1" source="825mWO_AQdO3POVHL9qi-30" target="77e6c97f196da883-15" edge="1">
          <mxGeometry relative="1" as="geometry">
            <Array as="points">
              <mxPoint x="1320" y="390" />
              <mxPoint x="1050" y="390" />
              <mxPoint x="1050" y="240" />
              <mxPoint x="800" y="240" />
            </Array>
          </mxGeometry>
        </mxCell>
        <mxCell id="825mWO_AQdO3POVHL9qi-32" style="edgeStyle=orthogonalEdgeStyle;rounded=1;sketch=0;jumpStyle=arc;jumpSize=9;orthogonalLoop=1;jettySize=auto;html=1;entryX=1;entryY=0.5;entryDx=0;entryDy=0;dashed=1;startSize=6;endSize=6;targetPerimeterSpacing=0;fillColor=#A8DADC;fontColor=#1D3557;elbow=vertical;curved=1;strokeColor=#FF3333;" parent="77e6c97f196da883-1" source="825mWO_AQdO3POVHL9qi-28" target="77e6c97f196da883-15" edge="1">
          <mxGeometry relative="1" as="geometry" />
        </mxCell>
        <mxCell id="825mWO_AQdO3POVHL9qi-42" value="yes" style="edgeStyle=orthogonalEdgeStyle;rounded=1;sketch=0;jumpStyle=arc;jumpSize=9;orthogonalLoop=1;jettySize=auto;html=1;exitX=1;exitY=0.5;exitDx=0;exitDy=0;entryX=0;entryY=0.5;entryDx=0;entryDy=0;startSize=6;endSize=6;targetPerimeterSpacing=0;strokeColor=#457B9D;fillColor=#A8DADC;fontColor=#1D3557;" parent="77e6c97f196da883-1" source="77e6c97f196da883-20" target="77e6c97f196da883-19" edge="1">
          <mxGeometry relative="1" as="geometry" />
        </mxCell>
        <mxCell id="EplShAqp4iF6V8usYBHb-7" style="edgeStyle=orthogonalEdgeStyle;rounded=0;orthogonalLoop=1;jettySize=auto;html=1;exitX=0.5;exitY=1;exitDx=0;exitDy=0;entryX=1;entryY=0.5;entryDx=0;entryDy=0;strokeColor=#457B9D;" edge="1" parent="77e6c97f196da883-1" source="77e6c97f196da883-19" target="EplShAqp4iF6V8usYBHb-5">
          <mxGeometry relative="1" as="geometry" />
        </mxCell>
        <mxCell id="EplShAqp4iF6V8usYBHb-15" style="edgeStyle=orthogonalEdgeStyle;rounded=0;orthogonalLoop=1;jettySize=auto;html=1;exitX=0.5;exitY=1;exitDx=0;exitDy=0;entryX=1;entryY=0.5;entryDx=0;entryDy=0;strokeColor=#457B9D;" edge="1" parent="77e6c97f196da883-1" source="77e6c97f196da883-22" target="EplShAqp4iF6V8usYBHb-10">
          <mxGeometry relative="1" as="geometry" />
        </mxCell>
        <mxCell id="EplShAqp4iF6V8usYBHb-30" value="no" style="edgeStyle=orthogonalEdgeStyle;curved=1;rounded=0;orthogonalLoop=1;jettySize=auto;html=1;exitX=1;exitY=0.5;exitDx=0;exitDy=0;entryX=0;entryY=0.5;entryDx=0;entryDy=0;strokeColor=#457B9D;" edge="1" parent="77e6c97f196da883-1" source="EplShAqp4iF6V8usYBHb-29" target="EplShAqp4iF6V8usYBHb-28">
          <mxGeometry relative="1" as="geometry" />
        </mxCell>
        <mxCell id="EplShAqp4iF6V8usYBHb-36" style="edgeStyle=orthogonalEdgeStyle;rounded=0;orthogonalLoop=1;jettySize=auto;html=1;strokeColor=#457B9D;entryX=1;entryY=0.5;entryDx=0;entryDy=0;exitX=0.5;exitY=1;exitDx=0;exitDy=0;" edge="1" parent="77e6c97f196da883-1" source="EplShAqp4iF6V8usYBHb-28" target="EplShAqp4iF6V8usYBHb-34">
          <mxGeometry relative="1" as="geometry">
            <mxPoint x="890" y="1330" as="targetPoint" />
            <Array as="points">
              <mxPoint x="1060" y="1295" />
            </Array>
          </mxGeometry>
        </mxCell>
        <mxCell id="825mWO_AQdO3POVHL9qi-34" style="edgeStyle=orthogonalEdgeStyle;rounded=1;sketch=0;jumpStyle=arc;jumpSize=9;orthogonalLoop=1;jettySize=auto;html=1;dashed=1;startSize=6;endSize=6;targetPerimeterSpacing=0;fillColor=#A8DADC;fontColor=#1D3557;elbow=vertical;curved=1;strokeColor=#FF3333;entryX=1;entryY=0.5;entryDx=0;entryDy=0;" parent="77e6c97f196da883-1" source="825mWO_AQdO3POVHL9qi-5" edge="1" target="77e6c97f196da883-15">
          <mxGeometry relative="1" as="geometry">
            <mxPoint x="610" y="330" as="targetPoint" />
          </mxGeometry>
        </mxCell>
        <mxCell id="825mWO_AQdO3POVHL9qi-33" style="edgeStyle=orthogonalEdgeStyle;rounded=1;sketch=0;jumpStyle=arc;jumpSize=9;orthogonalLoop=1;jettySize=auto;html=1;exitX=0;exitY=0.5;exitDx=0;exitDy=0;dashed=1;startSize=6;endSize=10;targetPerimeterSpacing=0;fillColor=#A8DADC;fontColor=#1D3557;elbow=vertical;curved=1;strokeColor=#FF3333;entryX=1;entryY=0.5;entryDx=0;entryDy=0;" parent="77e6c97f196da883-1" source="825mWO_AQdO3POVHL9qi-27" edge="1" target="77e6c97f196da883-15">
          <mxGeometry relative="1" as="geometry">
            <mxPoint x="610" y="330" as="targetPoint" />
          </mxGeometry>
        </mxCell>
        <mxCell id="825mWO_AQdO3POVHL9qi-35" style="edgeStyle=orthogonalEdgeStyle;rounded=1;sketch=0;jumpStyle=arc;jumpSize=9;orthogonalLoop=1;jettySize=auto;html=1;exitX=0;exitY=0.5;exitDx=0;exitDy=0;dashed=1;startSize=6;endSize=6;targetPerimeterSpacing=0;fillColor=#A8DADC;fontColor=#1D3557;elbow=vertical;curved=1;strokeColor=#FF3333;entryX=1;entryY=0.5;entryDx=0;entryDy=0;" parent="77e6c97f196da883-1" source="825mWO_AQdO3POVHL9qi-29" edge="1" target="77e6c97f196da883-15">
          <mxGeometry relative="1" as="geometry">
            <mxPoint x="610" y="330" as="targetPoint" />
            <Array as="points">
              <mxPoint x="1320" y="350" />
              <mxPoint x="1060" y="350" />
              <mxPoint x="1060" y="220" />
            </Array>
          </mxGeometry>
        </mxCell>
        <mxCell id="EplShAqp4iF6V8usYBHb-46" style="edgeStyle=orthogonalEdgeStyle;curved=1;rounded=0;orthogonalLoop=1;jettySize=auto;html=1;strokeColor=#457B9D;" edge="1" parent="1" source="EplShAqp4iF6V8usYBHb-34">
          <mxGeometry relative="1" as="geometry">
            <mxPoint x="820" y="300" as="targetPoint" />
          </mxGeometry>
        </mxCell>
        <mxCell id="EplShAqp4iF6V8usYBHb-59" style="edgeStyle=orthogonalEdgeStyle;curved=1;rounded=0;orthogonalLoop=1;jettySize=auto;html=1;strokeColor=#457B9D;entryX=0.5;entryY=1;entryDx=0;entryDy=0;" edge="1" parent="1" target="EplShAqp4iF6V8usYBHb-20">
          <mxGeometry relative="1" as="geometry">
            <mxPoint x="890" y="1130" as="targetPoint" />
            <mxPoint x="675" y="1355" as="sourcePoint" />
          </mxGeometry>
        </mxCell>
        <mxCell id="EplShAqp4iF6V8usYBHb-60" value="no" style="edgeLabel;html=1;align=center;verticalAlign=middle;resizable=0;points=[];" vertex="1" connectable="0" parent="EplShAqp4iF6V8usYBHb-59">
          <mxGeometry x="-0.5581" y="20" relative="1" as="geometry">
            <mxPoint as="offset" />
          </mxGeometry>
        </mxCell>
        <mxCell id="EplShAqp4iF6V8usYBHb-62" style="edgeStyle=orthogonalEdgeStyle;curved=1;rounded=0;orthogonalLoop=1;jettySize=auto;html=1;dashed=1;strokeColor=#FF3333;" edge="1" parent="1" source="77e6c97f196da883-10">
          <mxGeometry relative="1" as="geometry">
            <mxPoint x="820" y="300" as="targetPoint" />
          </mxGeometry>
        </mxCell>
      </root>
    </mxGraphModel>
  </diagram>
</mxfile>
